<svg width="70" height="62" viewBox="0 0 70 62" fill="none" xmlns="http://www.w3.org/2000/svg">
<path d="M26.5065 11.4232C26.6756 12.5763 27.0896 13.6619 27.724 14.6167C29.3409 17.3508 30.1756 20.4947 30.1536 23.7676C30.1328 27.0344 29.2546 30.3284 27.598 33.3536C26.9344 34.393 26.4868 35.5287 26.2823 36.6919C26.0778 37.855 26.1207 39.0215 26.4083 40.1207C26.6959 41.2199 27.2223 42.229 27.9556 43.0869C28.6889 43.9448 29.6138 44.6337 30.6745 45.1119C32.0914 45.7506 33.7084 45.991 35.3414 45.8045C36.3427 45.8022 37.337 45.8521 38.3202 45.9566L40.8809 46.3739C45.6946 47.334 49.75 50.0527 52.2183 53.9744C52.7922 54.9672 53.5823 55.8196 54.5419 56.4814C55.5016 57.1432 56.6114 57.6009 57.8059 57.8276C58.9965 58.0557 60.2482 58.0473 61.4861 57.8031C62.7241 57.559 63.923 57.0839 65.0112 56.4064C66.0984 55.7284 67.0531 54.8629 67.8189 53.861C68.5848 52.8591 69.1462 51.7412 69.47 50.5735C69.7928 49.4014 69.8718 48.2037 69.7024 47.0503C69.533 45.8969 69.1187 44.811 68.4836 43.8562C67.6801 42.6038 66.5206 41.6094 65.1216 40.9728C63.7262 40.3366 62.14 40.0812 60.5235 40.2324C53.7762 40.5196 46.9493 37.2915 43.6528 31.9908C41.2392 28.0825 40.5789 23.2913 41.8055 18.5862L43.722 13.244C44.5729 11.8632 45.0461 10.3279 45.0931 8.79125C45.1433 7.25518 44.7606 5.77482 43.9925 4.49897C43.4183 3.50646 42.6281 2.65422 41.6685 1.99246C40.7089 1.33071 39.5993 0.87282 38.4049 0.645762C37.2143 0.417981 35.9627 0.426432 34.7247 0.670606C33.4868 0.914781 32.2879 1.38968 31.1996 2.06699C30.112 2.74495 29.1568 3.61062 28.3906 4.61274C27.6243 5.61486 27.0627 6.73308 26.7388 7.90118C26.4162 9.07283 26.3373 10.2702 26.5065 11.4232Z" fill="#88FF9A"/>
<path d="M5.79663 61.1818C4.15773 60.5386 2.8043 59.4266 1.90748 57.9853C0.707244 56.0524 0.412534 53.6657 1.08764 51.3457C1.42116 50.2006 1.98346 49.1064 2.74232 48.1257C3.50118 47.1451 4.4417 46.2973 5.51004 45.6309C7.12033 44.6294 8.96011 44.0781 10.795 44.0474C12.6337 44.0165 14.385 44.5062 15.8275 45.4547C17.2715 46.4046 18.3433 47.7696 18.9086 49.3785C19.4738 50.9875 19.5074 52.769 19.0051 54.4997C18.5049 56.2255 17.4875 57.8225 16.0829 59.0867C14.6782 60.351 12.9501 61.225 11.1192 61.5973C9.28651 61.9698 7.43405 61.8252 5.79663 61.1818Z" fill="#88FF9A"/>
</svg>
